PathFileType   4   (X/Y/Z)
DataRate	CameraRate	NumFrames	NumMarkers	Units	OrigDataRate	OrigDataStartFrame	OrigNumFrames
120.0	120.0	4	37	mm	120.0	137	156
Frame#	Time	midhip	hip_r	hip_l	knee_r	knee_l	ankle_r	ankle_l	midasis	asis_r	asis_l	psis_r	psis_l	epicondLat_r	epicondLat_l	epicondMed_r	epicondMed_l	malleolusLat_r	malleolusLat_l	malleolusMedv_r	malleolusMedv_l	neck	subclavicle_r	subclavicle_l	sternalnotch	xyphoidprocess	thighwand_r	thighwand_l	upperleg1_r	upperleg1_l	upperleg2_r	upperleg2_l	shankwand_r	shankwand_l	lowerleg1_r	lowerleg1_l	toe_r	toe_l
 	 	X1	Y1	Z1	X2	Y2	Z2	X3	Y3	Z3	X4	Y4	Z4	X5	Y5	Z5	X6	Y6	Z6	X7	Y7	Z7	X8	Y8	Z8	X9	Y9	Z9	X10	Y10	Z10	X11	Y11	Z11	X12	Y12	Z12	X13	Y13	Z13	X14	Y14	Z14	X15	Y15	Z15	X16	Y16	Z16	X17	Y17	Z17	X18	Y18	Z18	X19	Y19	Z19	X20	Y20	Z20	X21	Y21	Z21	X22	Y22	Z22	X23	Y23	Z23	X24	Y24	Z24	X25	Y25	Z25	X26	Y26	Z26	X27	Y27	Z27	X28	Y28	Z28	X29	Y29	Z29	X30	Y30	Z30	X31	Y31	Z31	X32	Y32	Z32	X33	Y33	Z33	X34	Y34	Z34	X35	Y35	Z35	X36	Y36	Z36	X37	Y37	Z37

	137	1.35000	-1467.032	896.678	235.178	-1465.710	885.989	288.211	-1467.003	887.870	181.666	-1498.649	482.513	279.406	-1310.608	494.274	166.592	-1583.358	70.793	256.592	-1284.183	76.969	176.076	-1388.817	984.718	235.723	-1387.552	982.877	339.984	-1390.082	986.558	131.463	-1588.940	1009.562	270.281	-1590.462	1008.276	185.950	-1491.308	480.626	338.421	-1308.527	497.375	107.210	-1509.287	498.484	223.748	-1321.255	486.944	215.037	-1588.131	69.687	294.275	-1290.751	75.668	137.148	-1582.778	79.358	223.550	-1279.735	91.027	204.648	-1515.357	1464.266	255.755	-1417.232	1388.861	336.273	-1417.955	1397.521	181.124	-1429.940	1394.680	254.871	-1391.584	1194.142	236.744	-1452.127	581.708	423.830	-1216.797	661.643	154.307	-1430.594	643.293	355.256	-1307.882	689.924	113.425	-1439.049	563.010	329.031	-1287.507	604.723	119.238	-1561.543	137.936	365.529	-1194.304	200.821	168.532	-1568.380	201.261	308.617	-1260.020	246.284	164.909	-1461.615	42.290	249.872	-1160.301	73.669	172.954
	138	1.35833	-1460.594	896.938	235.851	-1460.453	885.320	288.393	-1461.137	887.171	181.841	-1495.499	482.037	279.393	-1304.867	493.481	166.986	-1583.131	70.935	256.436	-1267.128	77.193	177.600	-1383.282	984.051	236.318	-1382.613	982.239	340.602	-1383.952	985.862	132.035	-1583.636	1008.906	269.895	-1584.542	1007.491	185.595	-1488.297	480.094	338.424	-1302.535	496.647	107.616	-1505.870	498.103	223.831	-1316.473	485.885	215.046	-1587.898	69.847	294.120	-1273.678	75.607	138.679	-1582.539	79.445	223.360	-1262.826	91.346	206.179	-1509.876	1463.560	255.296	-1411.933	1388.335	336.046	-1412.258	1396.892	180.999	-1424.433	1394.089	254.662	-1385.837	1193.576	236.760	-1448.768	581.094	423.910	-1211.416	660.676	155.340	-1426.877	642.667	355.425	-1302.189	689.112	113.987	-1435.583	562.412	329.218	-1281.963	603.801	119.728	-1560.812	137.822	365.406	-1180.487	203.427	169.657	-1567.228	201.237	308.552	-1247.682	246.702	165.551	-1461.517	42.254	249.761	-1142.976	75.755	174.432
	139	1.36667	-1454.972	896.251	236.492	-1455.158	884.633	288.563	-1455.197	886.455	182.008	-1492.231	481.536	279.384	-1299.182	492.651	167.350	-1582.894	71.087	256.286	-1250.576	77.659	179.031	-1377.694	983.366	236.930	-1377.656	981.583	341.238	-1377.733	985.150	132.622	-1578.283	1008.233	269.496	-1578.593	1006.696	185.211	-1485.170	479.542	338.430	-1296.561	495.898	107.997	-1502.025	497.691	223.717	-1311.823	484.652	214.772	-1587.653	70.018	293.972	-1257.069	75.803	140.113	-1582.327	79.556	223.207	-1246.416	91.878	207.625	-1504.385	1462.850	254.797	-1406.604	1387.858	335.911	-1406.591	1396.214	180.848	-1418.928	1393.495	254.489	-1380.102	1192.996	236.933	-1445.314	580.473	424.001	-1206.080	659.658	156.448	-1423.127	642.015	355.662	-1296.558	688.261	114.580	-1431.916	561.758	329.349	-1276.491	602.850	120.135	-1560.046	137.716	365.301	-1167.055	206.114	170.779	-1565.977	201.195	308.498	-1235.965	247.062	165.698	-1461.412	42.228	249.649	-1126.132	77.702	175.910
	140	1.37500	-1449.295	895.576	237.010	-1449.828	883.933	288.723	-1449.191	885.724	182.170	-1488.866	481.013	279.387	-1293.523	491.794	167.684	-1582.657	71.252	256.148	-1234.564	78.327	180.363	-1372.055	982.664	237.554	-1372.678	980.911	341.881	-1371.432	984.417	133.226	-1572.863	1007.543	269.100	-1572.636	1005.901	184.796	-1481.942	478.974	338.448	-1290.576	495.140	108.351	-1498.341	497.388	223.616	-1307.161	483.349	214.469	-1587.409	70.202	293.835	-1240.962	76.221	141.442	-1582.093	79.716	223.059	-1230.537	92.598	208.919	-1498.854	1462.152	254.258	-1401.272	1387.392	335.748	-1400.937	1395.485	180.630	-1413.428	1392.884	254.270	-1374.466	1192.375	237.140	-1441.765	579.842	424.101	-1200.779	658.603	157.636	-1419.289	641.315	355.927	-1290.995	687.345	115.201	-1428.259	561.087	329.471	-1271.045	601.884	120.559	-1559.262	137.631	365.215	-1154.035	208.834	171.900	-1564.671	201.166	308.458	-1224.168	247.843	166.460	-1461.306	42.200	249.536	-1109.794	79.460	177.412
